<svg xmlns="http://www.w3.org/2000/svg" aria-hidden="true" style="position:absolute;width:0;height:0;overflow:hidden">
    <defs>

        <symbol id="commas" viewBox="0 0 38 32">
            <path fill="#f4f4f4" style="fill: var(--color1, #f4f4f4)" d="M7.501 16.603c2.319-0.919 4.178-0.678 5.578 0.722s1.816 3.631 1.247 6.694c-0.437 2.275-1.4 4.025-2.887 5.25-1.444 1.181-3.128 1.772-5.053 1.772-2.625 0-4.441-1.006-5.447-3.019-1.006-2.056-1.203-4.812-0.591-8.269 0.35-1.881 0.919-3.784 1.706-5.709s1.838-3.894 3.15-5.906c1.313-2.013 3.019-3.763 5.119-5.25s4.419-2.45 6.956-2.888l-0.656 6.956c-2.144 0.438-4.047 1.553-5.709 3.347-1.663 1.75-2.8 3.85-3.413 6.3zM27.254 16.603c2.319-0.919 4.178-0.678 5.578 0.722s1.816 3.631 1.247 6.694c-0.437 2.275-1.4 4.025-2.887 5.25-1.444 1.181-3.128 1.772-5.053 1.772-2.625 0-4.441-1.006-5.447-3.019-1.006-2.056-1.203-4.812-0.591-8.269 0.35-1.881 0.919-3.784 1.706-5.709s1.838-3.894 3.15-5.906c1.313-2.013 3.019-3.763 5.119-5.25s4.419-2.45 6.956-2.888l-0.656 6.956c-2.144 0.438-4.047 1.553-5.709 3.347-1.663 1.75-2.8 3.85-3.413 6.3z"></path>
        </symbol>

        <symbol id="human" viewBox="0 0 29 32">
            <path d="M27.717 9.451c-0.419-0.501-1.166-0.567-1.667-0.149l-3.282 2.757-1.509-3.739c-0.054-0.14-0.135-0.258-0.229-0.362-0.308-0.686-0.844-1.275-1.582-1.617-0.321-0.146-0.652-0.224-0.983-0.262-0.073-0.038-0.139-0.088-0.222-0.114l-5.776-1.61c-0.324-0.088-0.65-0.031-0.917 0.125-0.317 0.107-0.589 0.338-0.719 0.672l-2.175 5.592c-0.236 0.608 0.066 1.294 0.676 1.534 0.606 0.236 1.294-0.068 1.532-0.678l1.837-4.722 2.63 0.731c-0.064 0.104-0.133 0.201-0.185 0.312l-3.372 7.309c-0.049 0.107-0.075 0.217-0.109 0.328l-4.098 6.871-6.859 2.294c-0.776 0.58-0.941 1.674-0.367 2.45 0.577 0.778 1.674 0.943 2.448 0.369l7.018-2.417c0.215-0.156 0.371-0.36 0.489-0.58 0.088-0.094 0.189-0.168 0.256-0.284l2.443-4.096 4.337 3.696-4.64 5.23c-0.639 0.721-0.575 1.832 0.149 2.469 0.723 0.643 1.83 0.575 2.473-0.149l5.791-6.524c0.18-0.201 0.288-0.433 0.36-0.676 0.043-0.132 0.043-0.269 0.054-0.406 0-0.069 0.026-0.132 0.021-0.196-0.016-0.478-0.21-0.943-0.601-1.274l-3.991-3.403c0.288-0.274 0.532-0.6 0.709-0.983l2.585-5.599 0.828 2.206c0.035 0.196 0.1 0.388 0.239 0.549 0.125 0.149 0.284 0.248 0.454 0.317 0.017 0.009 0.038 0.010 0.059 0.016 0.107 0.038 0.217 0.075 0.329 0.080 0.133 0.012 0.268-0.005 0.405-0.043 0.004-0.002 0.005-0.002 0.005-0.002 0.036-0.009 0.073-0.002 0.109-0.017 0.192-0.073 0.34-0.196 0.466-0.34l4.71-3.998c0.501-0.421 0.289-1.166-0.132-1.667z"></path>
            <path d="M21.76 6.602c1.823 0 3.301-1.478 3.301-3.301s-1.478-3.301-3.301-3.301c-1.823 0-3.301 1.478-3.301 3.301s1.478 3.301 3.301 3.301z"></path>
        </symbol>

        <symbol id="search" viewBox="0 0 32 32">
            <path stroke-linejoin="round" stroke-linecap="round" stroke-miterlimit="4" stroke-width="2.6667" d="M14.667 25.333c5.891 0 10.667-4.776 10.667-10.667s-4.776-10.667-10.667-10.667c-5.891 0-10.667 4.776-10.667 10.667s4.776 10.667 10.667 10.667z"></path>
            <path stroke-linejoin="round" stroke-linecap="round" stroke-miterlimit="4" stroke-width="2.6667" d="M28 28l-5.8-5.8"></path>
        </symbol>

        <symbol id="rate-star" viewBox="0 0 34 32">
            <path d="M14.908 1.228c0.532-1.638 2.849-1.638 3.382 0l2.7 8.309c0.238 0.732 0.921 1.228 1.691 1.228h8.737c1.722 0 2.438 2.204 1.045 3.216l-7.068 5.135c-0.623 0.453-0.884 1.255-0.646 1.988l2.7 8.309c0.532 1.638-1.342 3-2.736 1.988l-7.068-5.135c-0.623-0.453-1.467-0.453-2.090 0l-7.068 5.135c-1.393 1.012-3.268-0.35-2.736-1.988l2.7-8.309c0.238-0.732-0.023-1.535-0.646-1.988l-7.068-5.135c-1.393-1.012-0.677-3.216 1.045-3.216h8.736c0.77 0 1.453-0.496 1.691-1.228l2.7-8.309z"></path>
        </symbol>

        <symbol id="star" viewBox="0 0 32 32">
            <path fill="#eea10c" style="fill: var(--color2, #eea10c)" d="M13.618 1.701c0.737-2.268 3.945-2.268 4.682 0l2.080 6.402c0.33 1.014 1.275 1.701 2.341 1.701h6.731c2.384 0 3.376 3.051 1.447 4.453l-5.446 3.957c-0.863 0.627-1.224 1.738-0.894 2.752l2.080 6.402c0.737 2.268-1.859 4.154-3.788 2.752l-5.446-3.957c-0.863-0.627-2.031-0.627-2.894 0l-5.446 3.957c-1.929 1.402-4.525-0.484-3.788-2.752l2.080-6.402c0.33-1.014-0.031-2.125-0.894-2.752l-5.446-3.957c-1.929-1.402-0.938-4.453 1.447-4.453h6.731c1.066 0 2.012-0.687 2.341-1.701l2.080-6.402z"></path>
        </symbol>

        <symbol id="dumbbell" viewBox="0 0 43 32">
            <path d="M6.933 4.571h-3.2c-0.887 0-1.6 0.764-1.6 1.714v7.429h-1.6c-0.293 0-0.533 0.257-0.533 0.571v3.429c0 0.314 0.24 0.571 0.533 0.571h1.6v7.429c0 0.95 0.713 1.714 1.6 1.714h3.2c0.887 0 1.6-0.764 1.6-1.714v-19.429c0-0.95-0.713-1.714-1.6-1.714zM42.133 13.714h-1.6v-7.429c0-0.95-0.713-1.714-1.6-1.714h-3.2c-0.887 0-1.6 0.764-1.6 1.714v19.429c0 0.95 0.713 1.714 1.6 1.714h3.2c0.887 0 1.6-0.764 1.6-1.714v-7.429h1.6c0.293 0 0.533-0.257 0.533-0.571v-3.429c0-0.314-0.24-0.571-0.533-0.571zM30.4 0h-3.2c-0.887 0-1.6 0.764-1.6 1.714v12h-8.533v-12c0-0.95-0.713-1.714-1.6-1.714h-3.2c-0.887 0-1.6 0.764-1.6 1.714v28.571c0 0.95 0.713 1.714 1.6 1.714h3.2c0.887 0 1.6-0.764 1.6-1.714v-12h8.533v12c0 0.95 0.713 1.714 1.6 1.714h3.2c0.887 0 1.6-0.764 1.6-1.714v-28.571c0-0.95-0.713-1.714-1.6-1.714z"></path>
        </symbol>

        <symbol id="cross" viewBox="0 0 32 32">
            <path stroke-linejoin="round" stroke-linecap="round" stroke-miterlimit="4" stroke-width="2.6667" d="M22.667 9.333l-13.333 13.333M9.333 9.333l13.333 13.333"></path>
        </symbol>

        <symbol id="facebook" viewBox="0 0 13 32">
            <path d="M11.088 0.112c0.336 0 0.672 0 1.344 0v5.040c-0.336 0-1.008 0-1.68 0s-1.344 0-1.68 0.336c-0.336 0.336-0.336 0.672-0.336 1.456 0 0.672 0 1.12 0 1.792h3.696v4.256h-3.696v18.48h-5.712v-18.592h-3.024v-4.256h3.024v-1.456c0-2.464 0.336-4.256 1.008-5.040 1.008-1.456 3.024-2.128 6.048-2.128 0.336 0.112 0.672 0.112 1.008 0.112z"></path>
        </symbol>

        <symbol id="insta" viewBox="0 0 32 32">
            <path d="M28.717 10.756c-0.016-1.074-0.215-2.14-0.596-3.145-0.667-1.716-2.024-3.073-3.743-3.737-0.994-0.373-2.044-0.573-3.108-0.596-1.368-0.061-1.801-0.078-5.273-0.078s-3.917 0-5.274 0.078c-1.062 0.023-2.112 0.223-3.106 0.596-1.719 0.664-3.078 2.021-3.743 3.737-0.374 0.992-0.576 2.041-0.596 3.101-0.061 1.367-0.080 1.8-0.080 5.265s0 3.909 0.080 5.265c0.021 1.062 0.222 2.109 0.596 3.104 0.667 1.714 2.024 3.071 3.744 3.735 0.989 0.386 2.040 0.605 3.106 0.639 1.369 0.061 1.803 0.079 5.274 0.079s3.916 0 5.274-0.079c1.062-0.021 2.113-0.221 3.108-0.595 1.719-0.666 3.076-2.022 3.743-3.737 0.374-0.994 0.574-2.041 0.596-3.104 0.061-1.365 0.080-1.798 0.080-5.265-0.003-3.466-0.003-3.906-0.082-5.264zM15.99 22.531c-3.631 0-6.572-2.936-6.572-6.561s2.941-6.561 6.572-6.561c3.628 0 6.572 2.936 6.572 6.561s-2.944 6.561-6.572 6.561zM22.823 10.696c-0.849 0-1.532-0.684-1.532-1.53s0.684-1.53 1.532-1.53c0.846 0 1.531 0.684 1.531 1.53s-0.685 1.53-1.531 1.53z"></path>
            <path d="M15.992 19.976c2.211 0 4.004-1.793 4.004-4.004s-1.793-4.004-4.004-4.004c-2.211 0-4.004 1.793-4.004 4.004s1.793 4.004 4.004 4.004z"></path>
        </symbol>

        <symbol id="youtube" viewBox="0 0 44 32">
            <path d="M34.844 0.249c-2.116-0.124-6.471-0.249-13.067-0.249h-0.871c-6.347 0-10.578 0.124-12.693 0.373-2.862 0.249-4.853 0.996-5.973 1.991-0.996 0.871-1.742 2.489-1.991 4.604-0.124 1.369-0.249 4.231-0.249 8.587v0.622c0 4.107 0.124 6.969 0.373 8.338 0.373 1.991 0.996 3.484 2.24 4.356 1.244 0.996 3.36 1.618 6.347 1.867 2.116 0.124 6.471 0.249 13.067 0.249h0.871c6.347 0 10.578-0.124 12.693-0.373 2.862-0.249 4.853-0.996 5.973-1.991 0.996-0.871 1.742-2.489 1.991-4.604 0.124-1.369 0.249-4.231 0.249-8.587v-0.622c0-4.107-0.124-6.969-0.373-8.338-0.373-1.991-0.996-3.484-2.24-4.356-1.244-0.996-3.36-1.618-6.347-1.867zM29.991 15.556l-13.689 8.213v-16.427l13.689 8.213z"></path>
        </symbol>

        <symbol id="icon-30" viewBox="0 0 32 32">
            <path d="M16.391 13.546l5.321-12.466-4.466 12.797 9.465-9.702-8.788 10.32 12.331-5.628-11.922 6.449 13.531-0.793-13.446 1.706 12.904 4.148-13.155-3.266 10.534 8.53-11.086-7.797 6.741 11.759-7.521-11.276 2.039 13.4-2.94-13.232-2.94 13.232 2.038-13.4-7.521 11.276 6.741-11.759-11.086 7.797 10.534-8.53-13.155 3.266 12.904-4.148-13.446-1.706 13.531 0.793-11.922-6.449 12.331 5.628-8.787-10.32 9.465 9.702-4.466-12.797 5.321 12.466 0.459-13.546 0.459 13.546zM15.184 14.071l-0.646 0.4-0.458 0.607-0.208 0.73 0.070 0.758 0.339 0.68 0.562 0.513 0.709 0.274h0.76l0.708-0.274 0.561-0.513 0.339-0.68 0.070-0.758-0.208-0.73-0.458-0.607-0.646-0.4-0.747-0.14-0.747 0.14z"></path>
        </symbol>

        <symbol id="heart" viewBox="0 0 36 32">
            <path stroke-linejoin="round" stroke-linecap="round" stroke-miterlimit="4" stroke-width="2.8235" d="M31.673 3.94c-0.801-0.802-1.752-1.437-2.799-1.871s-2.169-0.657-3.303-0.657c-1.133 0-2.255 0.223-3.303 0.657s-1.998 1.070-2.799 1.871l-1.663 1.663-1.663-1.663c-1.618-1.618-3.813-2.528-6.102-2.528s-4.484 0.909-6.102 2.528c-1.618 1.618-2.527 3.813-2.527 6.102s0.909 4.484 2.527 6.102l13.867 13.867 13.867-13.867c0.802-0.801 1.437-1.752 1.871-2.799s0.657-2.169 0.657-3.303-0.223-2.255-0.657-3.303c-0.434-1.047-1.070-1.998-1.871-2.799z"></path>
        </symbol>

        <symbol id="trash" viewBox="0 0 29 32">
            <path stroke-linejoin="round" stroke-linecap="round" stroke-miterlimit="4" stroke-width="2.5263" d="M19.509 6.877v-1.123c0-1.572 0-2.358-0.306-2.959-0.269-0.528-0.699-0.958-1.227-1.227-0.6-0.306-1.386-0.306-2.959-0.306h-2.246c-1.572 0-2.358 0-2.959 0.306-0.528 0.269-0.958 0.699-1.227 1.227-0.306 0.6-0.306 1.386-0.306 2.959v1.123M11.088 14.597v7.017M16.702 14.597v7.017M1.263 6.877h25.263M23.719 6.877v15.719c0 2.358 0 3.537-0.459 4.438-0.404 0.792-1.048 1.436-1.84 1.84-0.901 0.459-2.080 0.459-4.438 0.459h-6.175c-2.358 0-3.537 0-4.438-0.459-0.792-0.404-1.436-1.048-1.84-1.84-0.459-0.901-0.459-2.080-0.459-4.438v-15.719"></path>
        </symbol>

        <symbol id="your-energy" viewBox="0 0 302 32">
            <path d="M11.383 18.926l-11.383-18.926h6.811l7.634 13.12h0.091l7.634-13.12h6.811l-11.383 18.926v13.074h-6.217v-13.074z"></path>
            <path d="M28.961 26.743v-21.486l5.257-5.257h16.457l5.257 5.257v21.486l-5.257 5.257h-16.457l-5.257-5.257zM47.384 26.697l2.331-2.331v-16.731l-2.331-2.331h-9.874l-2.331 2.331v16.731l2.331 2.331h9.874z"></path>
            <path d="M60.284 26.514v-26.514h6.217v24.366l2.331 2.331h8.96l2.331-2.331v-24.366h6.217v26.514l-5.486 5.486h-15.086l-5.486-5.486z"></path>
            <path d="M116.293 21.394v10.606h-6.217v-9.189l-2.743-3.063h-9.966v12.251h-6.217v-32h20.069l4.891 4.937v9.691l-3.109 3.154 3.291 3.611zM97.367 14.629h11.017l1.6-1.6v-6.217l-1.6-1.6h-11.017v9.417z"></path>
            <path d="M132.168 0h23.131v5.257h-16.914v8.091h15.589v5.166h-15.589v8.229h16.914v5.257h-23.131v-32z"></path>
            <path d="M158.748 0h5.577l14.263 21.714h0.091v-21.714h5.989v32h-5.577l-14.263-21.669h-0.091v21.669h-5.989v-32z"></path>
            <path d="M189.48 0h23.131v5.257h-16.914v8.091h15.589v5.166h-15.589v8.229h16.914v5.257h-23.131v-32z"></path>
            <path d="M241.205 21.394v10.606h-6.217v-9.189l-2.743-3.063h-9.967v12.251h-6.217v-32h20.070l4.891 4.937v9.691l-3.109 3.154 3.291 3.611zM222.278 14.629h11.018l1.6-1.6v-6.217l-1.6-1.6h-11.018v9.417z"></path>
            <path d="M245.31 26.743v-21.486l5.257-5.257h15.909l5.166 5.166v4.891h-6.217v-2.606l-2.149-2.149h-9.417l-2.331 2.331v16.731l2.331 2.331h9.509l2.24-2.24v-4.983h-6.857v-5.303h12.891v12.571l-5.257 5.257h-15.817l-5.257-5.257z"></path>
            <path d="M283.035 18.926l-11.383-18.926h6.811l7.634 13.12h0.091l7.634-13.12h6.811l-11.383 18.926v13.074h-6.217v-13.074z"></path>
        </symbol>

        <symbol id="burger" viewBox="0 0 32 32">
            <path stroke-linejoin="round" stroke-linecap="round" stroke-miterlimit="4" stroke-width="2" d="M28 13.333h-24"></path>
            <path stroke-linejoin="round" stroke-linecap="round" stroke-miterlimit="4" stroke-width="2" d="M28 8h-24"></path>
            <path stroke-linejoin="round" stroke-linecap="round" stroke-miterlimit="4" stroke-width="2" d="M28 18.667h-24"></path>
            <path stroke-linejoin="round" stroke-linecap="round" stroke-miterlimit="4" stroke-width="2" d="M28 24h-24"></path>
        </symbol>

        <symbol id="icon-running-man" viewBox="0 0 34 32">
            <path fill="#f6f6f6" style="fill: var(--color1, #f6f6f6)" opacity="0.1" d="M32 16c0 8.837-7.163 16-16 16s-16-7.163-16-16c0-8.837 7.163-16 16-16s16 7.163 16 16z"></path>
            <path fill="#f6f6f6" style="fill: var(--color1, #f6f6f6)" d="M24.729 11.907c-0.268-0.313-0.746-0.354-1.066-0.093l-2.099 1.723-0.965-2.337c-0.034-0.088-0.086-0.161-0.146-0.226-0.197-0.429-0.54-0.797-1.012-1.011-0.205-0.091-0.417-0.14-0.628-0.164-0.047-0.024-0.089-0.055-0.142-0.071l-3.694-1.006c-0.207-0.055-0.416-0.020-0.586 0.078-0.203 0.067-0.377 0.211-0.46 0.42l-1.391 3.495c-0.151 0.38 0.042 0.809 0.432 0.959 0.388 0.147 0.828-0.042 0.98-0.423l1.175-2.951 1.683 0.457c-0.041 0.065-0.085 0.126-0.119 0.195l-2.157 4.568c-0.031 0.067-0.048 0.135-0.070 0.205l-2.621 4.294-4.387 1.434c-0.497 0.363-0.602 1.046-0.235 1.531 0.369 0.486 1.071 0.589 1.566 0.231l4.489-1.511c0.137-0.098 0.237-0.225 0.313-0.363 0.056-0.058 0.121-0.105 0.164-0.178l1.563-2.56 2.774 2.31-2.968 3.268c-0.409 0.451-0.368 1.145 0.095 1.543 0.462 0.402 1.17 0.36 1.582-0.093l3.704-4.078c0.115-0.126 0.184-0.271 0.23-0.422 0.028-0.082 0.028-0.168 0.034-0.253 0-0.043 0.017-0.082 0.013-0.122-0.010-0.299-0.134-0.589-0.385-0.796l-2.553-2.127c0.184-0.171 0.34-0.375 0.453-0.614l1.654-3.499 0.53 1.379c0.022 0.122 0.064 0.243 0.153 0.343 0.080 0.093 0.182 0.155 0.29 0.198 0.011 0.005 0.024 0.007 0.038 0.010 0.069 0.024 0.139 0.047 0.211 0.050 0.085 0.008 0.172-0.003 0.259-0.027 0.002-0.001 0.003-0.001 0.003-0.001 0.023-0.005 0.047-0.001 0.070-0.011 0.123-0.046 0.217-0.122 0.298-0.212l3.013-2.498c0.32-0.263 0.185-0.729-0.084-1.042z"></path>
            <path fill="#f6f6f6" style="fill: var(--color1, #f6f6f6)" d="M20.919 10.126c1.166 0 2.111-0.924 2.111-2.063s-0.945-2.063-2.111-2.063c-1.166 0-2.111 0.924-2.111 2.063s0.945 2.063 2.111 2.063z"></path>
        </symbol>
~
    </defs>
</svg>



